# xmcd
#
# Track frame offsets: 
#        182
#        11292
#        24060
#        37550
#        50565
#        63125
#        74487
#        85885
#        96162
#        110895
#        124500
#        136275
#        150405
#        167685
#        182672
#        192445
#        206310
#        215855
#
# Disc length: 3012 seconds
#
# Revision: 2
# Processed by: cddbd v1.5.2PL0 Copyright (c) Steve Scherf et al.
# Submitted via: ExactAudioCopy v0.95b4
#
DISCID=e90bc212
DTITLE=Various Artist - Toutes les danses [CD1)
DYEAR=2001
DGENRE=Dance Hall
TTITLE0=Primo Corchia y su Orquestra - La Cumparsita
TTITLE1=Primo Corchia y su Orquestra - Jalousie
TTITLE2=Angelito Miguel y su Orquestra - Toro de Fuego
TTITLE3=Angelito Miguel y su Orquestra - El Relicario
TTITLE4=Aimable, son accordéon et son orchestre - Le dénicheur
TTITLE5=Aimable, son accordéon et son orchestre - Ah! Le petit vin bla
TTITLE5=nc
TTITLE6=Primo Corchia y su Orquestra - Martha
TTITLE7=Primo Corchia y su Orquestra - Concertino Tango
TTITLE8=Angelito Miguel y su Orquestra - La Muerte de Manolette
TTITLE9=The Hotvill's - Tabou
TTITLE10=Benny Bennet et son orchestre latino américain - Eso es el am
TTITLE10=or
TTITLE11=Benny Bennet et son orchestre latino américain - Très moutard
TTITLE11=e
TTITLE12=Michael Mesiter Muller et son grand orchestre symphonique - L
TTITLE12=e beau danube bleu
TTITLE13=Michael Mesiter Muller et son grand orchestre symphonique - A
TTITLE13=imer, boire et chanter
TTITLE14=Brian Burd - Only You
TTITLE15=Brian Burd - The Great Pretender
TTITLE16=John Smith and The New Sound - Rock Around The Clock
TTITLE17=Brian Burd - Jenny Jenny
EXTD=
EXTT0=
EXTT1=
EXTT2=
EXTT3=
EXTT4=
EXTT5=
EXTT6=
EXTT7=
EXTT8=
EXTT9=
EXTT10=
EXTT11=
EXTT12=
EXTT13=
EXTT14=
EXTT15=
EXTT16=
EXTT17=
PLAYORDER=
